# xmcd CD database file
# Copyright (C) 1997 Ti Kan
# 
# Track frame offsets:
#     150
#     13363
#     32038
#     46315
#     58603
#     70835
#     83725
#     98148
#     109575
#     120690
#     133873
#     145558
#     157015
#     168803
#     186618
#     201765
#     216200
#     229178
#     241843
#     254890
# 
# Disc length: 3570 seconds
# 
# Revision: 1
# Processed by: cddbd v1.4b41PL1 Copyright (c) Steve Scherf et al.
# Submitted via: DiscPlay 4.0.4
# 
DISCID=230df014
DTITLE=B.J. Thomas - The Hits ... And Much More
DYEAR=1900
DGENRE=
TTITLE0=Raindrops Keep Fallin' On My Head
TTITLE1=Rock And Roll Lullaby
TTITLE2=I'm So Lonesome I Could Cry
TTITLE3=Hooked On A Feeling
TTITLE4=Everybody Is Talking
TTITLE5=Suspicious Minds
TTITLE6=I Just Can't Help Believin'
TTITLE7=I Forgot To Remember To Forget
TTITLE8=Cold, Cold Heart
TTITLE9=Without Love
TTITLE10=A Fallen Star
TTITLE11=Until I Run Out Of Tears
TTITLE12=Half As Much
TTITLE13=Little Green Apples
TTITLE14=Rainy Night In Georgia
TTITLE15=Mighty Clouds Of Joy
TTITLE16=No Love At All
TTITLE17=Mama
TTITLE18=Most Of All
TTITLE19=It's Only Love
EXTD=
EXTT0=
EXTT1=
EXTT2=
EXTT3=
EXTT4=
EXTT5=
EXTT6=
EXTT7=
EXTT8=
EXTT9=
EXTT10=
EXTT11=
EXTT12=
EXTT13=
EXTT14=
EXTT15=
EXTT16=
EXTT17=
EXTT18=
EXTT19=
PLAYORDER=
